<svg xmlns="http://www.w3.org/2000/svg" viewBox="0 0 430 372" width="430" height="372" role="img" font-family="ui-monospace,monospace"><title>Afwah</title><desc>Afwah — Discrete-event Monte Carlo model of how misinformation spreads across four social platforms with distinct topologies.</desc><style>:root{--ground:#0d1117;--panel:#161b22;--inset:#010409;--border:#30363d;--borderhi:#484f58;--text:#e6edf3;--muted:#8b949e;--faint:#6e7681;--blue:#58a6ff;--green:#3fb950;--yellow:#d29922;--python:#3572A5;--ts:#3178c6;--js:#f1e05a;--html:#e34c26;--jupyter:#DA5B0B;--php:#4F5D95}@media (prefers-color-scheme:light){:root{--ground:#ffffff;--panel:#f6f8fa;--inset:#eaeef2;--border:#d1d9e0;--borderhi:#afb8c1;--text:#1f2328;--muted:#59636e;--faint:#818b98;--blue:#0969da;--green:#1a7f37;--yellow:#9a6700;--python:#2b5c86;--ts:#2a63a0;--js:#9a8500;--html:#c23b18;--jupyter:#b04a09;--php:#414d7c}}
.inf{animation:casc 6s steps(1,end) infinite;opacity:0}
.i0{animation-delay:0s}.i1{animation-delay:.9s}
.i2{animation-delay:1.5s}.i3{animation-delay:2.2s}
@keyframes casc{0%{opacity:0}4%,66%{opacity:1}70%,100%{opacity:0}}
.chk{animation:ck 6s steps(1,end) infinite;opacity:0;transform-origin:191px 75px}
@keyframes ck{0%,62%{opacity:0}66%{opacity:1}74%{opacity:1}78%,100%{opacity:0}}

.pulse{animation:pl 1.6s ease-in-out infinite}
@keyframes pl{0%,100%{opacity:1}50%{opacity:.3}}
@media (prefers-reduced-motion:reduce){*{animation:none!important;transform:none!important}}</style><rect width="430" height="372" fill="var(--ground)"/><rect x="0.5" y="0.5" width="429" height="371" fill="var(--panel)" stroke="var(--border)" stroke-width="1"/><circle cx="20" cy="20" r="4" fill="var(--jupyter)"/><text x="32" y="24" font-size="11" fill="var(--muted)" text-anchor="start" font-weight="400" font-family="ui-monospace,SFMono-Regular,SF Mono,Menlo,Consolas,Liberation Mono,monospace">Jupyter Notebook</text><g class="pulse"><circle cx="356" cy="20" r="3" fill="var(--yellow)"/></g><path d="M368 15h6v2h-6zM366 17h2v2h-2zM374 17h2v2h-2zM366 19h2v2h-2zM374 19h2v2h-2zM366 21h10v2h-10zM366 23h2v2h-2zM374 23h2v2h-2zM366 25h2v2h-2zM374 25h2v2h-2zM366 27h2v2h-2zM374 27h2v2h-2zM380 15h6v2h-6zM378 17h2v2h-2zM386 17h2v2h-2zM378 19h2v2h-2zM378 21h2v2h-2zM378 23h2v2h-2zM378 25h2v2h-2zM386 25h2v2h-2zM380 27h6v2h-6zM390 15h10v2h-10zM394 17h2v2h-2zM394 19h2v2h-2zM394 21h2v2h-2zM394 23h2v2h-2zM394 25h2v2h-2zM394 27h2v2h-2zM402 15h10v2h-10zM406 17h2v2h-2zM406 19h2v2h-2zM406 21h2v2h-2zM406 23h2v2h-2zM406 25h2v2h-2zM402 27h10v2h-10zM414 15h2v2h-2zM422 15h2v2h-2zM414 17h2v2h-2zM422 17h2v2h-2zM414 19h2v2h-2zM422 19h2v2h-2zM414 21h2v2h-2zM422 21h2v2h-2zM414 23h2v2h-2zM422 23h2v2h-2zM416 25h2v2h-2zM420 25h2v2h-2zM418 27h2v2h-2zM426 15h10v2h-10zM426 17h2v2h-2zM426 19h2v2h-2zM426 21h8v2h-8zM426 23h2v2h-2zM426 25h2v2h-2zM426 27h10v2h-10z" fill="var(--yellow)"/><rect x="0" y="38" width="430" height="1" fill="var(--border)"/><g transform="translate(20,52)"><g><rect x="0" y="0" width="390" height="150" fill="var(--inset)"/><rect x="26" y="14" width="104" height="60" fill="var(--border)" opacity="0.13"/><path d="M28 16h8v2h-8zM28 18h2v2h-2zM36 18h2v2h-2zM28 20h2v2h-2zM36 20h2v2h-2zM28 22h8v2h-8zM28 24h2v2h-2zM28 26h2v2h-2zM28 28h2v2h-2zM44 16h2v2h-2zM42 18h4v2h-4zM44 20h2v2h-2zM44 22h2v2h-2zM44 24h2v2h-2zM44 26h2v2h-2zM42 28h6v2h-6z" fill="var(--faint)"/><line x1="115" y1="40" x2="103" y2="25" stroke="var(--border)" stroke-width="1" opacity="0.55"/><line x1="115" y1="40" x2="95" y2="39" stroke="var(--border)" stroke-width="1" opacity="0.55"/><line x1="115" y1="40" x2="119" y2="27" stroke="var(--border)" stroke-width="1" opacity="0.55"/><line x1="115" y1="40" x2="67" y2="48" stroke="var(--border)" stroke-width="1" opacity="0.55"/><line x1="81" y1="65" x2="103" y2="25" stroke="var(--border)" stroke-width="1" opacity="0.55"/><line x1="81" y1="65" x2="119" y2="27" stroke="var(--border)" stroke-width="1" opacity="0.55"/><line x1="81" y1="65" x2="56" y2="31" stroke="var(--border)" stroke-width="1" opacity="0.55"/><line x1="81" y1="65" x2="67" y2="48" stroke="var(--border)" stroke-width="1" opacity="0.55"/><line x1="81" y1="65" x2="105" y2="30" stroke="var(--border)" stroke-width="1" opacity="0.55"/><line x1="103" y1="25" x2="56" y2="31" stroke="var(--border)" stroke-width="1" opacity="0.55"/><line x1="95" y1="39" x2="119" y2="27" stroke="var(--border)" stroke-width="1" opacity="0.55"/><line x1="119" y1="27" x2="56" y2="31" stroke="var(--border)" stroke-width="1" opacity="0.55"/><line x1="119" y1="27" x2="67" y2="48" stroke="var(--border)" stroke-width="1" opacity="0.55"/><line x1="119" y1="27" x2="105" y2="30" stroke="var(--border)" stroke-width="1" opacity="0.55"/><line x1="56" y1="31" x2="83" y2="54" stroke="var(--border)" stroke-width="1" opacity="0.55"/><line x1="83" y1="54" x2="67" y2="48" stroke="var(--border)" stroke-width="1" opacity="0.55"/><rect x="228" y="10" width="104" height="60" fill="var(--border)" opacity="0.13"/><path d="M230 12h8v2h-8zM230 14h2v2h-2zM238 14h2v2h-2zM230 16h2v2h-2zM238 16h2v2h-2zM230 18h8v2h-8zM230 20h2v2h-2zM230 22h2v2h-2zM230 24h2v2h-2zM244 12h6v2h-6zM242 14h2v2h-2zM250 14h2v2h-2zM250 16h2v2h-2zM248 18h2v2h-2zM246 20h2v2h-2zM244 22h2v2h-2zM242 24h10v2h-10z" fill="var(--faint)"/><line x1="277" y1="42" x2="240" y2="55" stroke="var(--border)" stroke-width="1" opacity="0.55"/><line x1="277" y1="42" x2="291" y2="43" stroke="var(--border)" stroke-width="1" opacity="0.55"/><line x1="277" y1="50" x2="283" y2="45" stroke="var(--border)" stroke-width="1" opacity="0.55"/><line x1="278" y1="31" x2="270" y2="21" stroke="var(--border)" stroke-width="1" opacity="0.55"/><line x1="278" y1="31" x2="291" y2="43" stroke="var(--border)" stroke-width="1" opacity="0.55"/><line x1="299" y1="50" x2="283" y2="45" stroke="var(--border)" stroke-width="1" opacity="0.55"/><line x1="299" y1="50" x2="240" y2="55" stroke="var(--border)" stroke-width="1" opacity="0.55"/><line x1="260" y1="23" x2="270" y2="21" stroke="var(--border)" stroke-width="1" opacity="0.55"/><line x1="240" y1="55" x2="291" y2="43" stroke="var(--border)" stroke-width="1" opacity="0.55"/><rect x="20" y="78" width="104" height="60" fill="var(--border)" opacity="0.13"/><path d="M22 80h8v2h-8zM22 82h2v2h-2zM30 82h2v2h-2zM22 84h2v2h-2zM30 84h2v2h-2zM22 86h8v2h-8zM22 88h2v2h-2zM22 90h2v2h-2zM22 92h2v2h-2zM34 80h8v2h-8zM42 82h2v2h-2zM42 84h2v2h-2zM36 86h6v2h-6zM42 88h2v2h-2zM42 90h2v2h-2zM34 92h8v2h-8z" fill="var(--faint)"/><line x1="106" y1="122" x2="81" y2="90" stroke="var(--border)" stroke-width="1" opacity="0.55"/><line x1="106" y1="122" x2="37" y2="128" stroke="var(--border)" stroke-width="1" opacity="0.55"/><line x1="106" y1="122" x2="72" y2="101" stroke="var(--border)" stroke-width="1" opacity="0.55"/><line x1="81" y1="90" x2="74" y2="104" stroke="var(--border)" stroke-width="1" opacity="0.55"/><line x1="60" y1="126" x2="37" y2="128" stroke="var(--border)" stroke-width="1" opacity="0.55"/><line x1="60" y1="126" x2="72" y2="101" stroke="var(--border)" stroke-width="1" opacity="0.55"/><line x1="88" y1="129" x2="37" y2="128" stroke="var(--border)" stroke-width="1" opacity="0.55"/><line x1="88" y1="129" x2="34" y2="119" stroke="var(--border)" stroke-width="1" opacity="0.55"/><rect x="234" y="76" width="104" height="60" fill="var(--border)" opacity="0.13"/><path d="M236 78h8v2h-8zM236 80h2v2h-2zM244 80h2v2h-2zM236 82h2v2h-2zM244 82h2v2h-2zM236 84h8v2h-8zM236 86h2v2h-2zM236 88h2v2h-2zM236 90h2v2h-2zM254 78h2v2h-2zM252 80h4v2h-4zM250 82h2v2h-2zM254 82h2v2h-2zM248 84h2v2h-2zM254 84h2v2h-2zM248 86h10v2h-10zM254 88h2v2h-2zM254 90h2v2h-2z" fill="var(--faint)"/><line x1="283" y1="109" x2="315" y2="128" stroke="var(--border)" stroke-width="1" opacity="0.55"/><line x1="283" y1="109" x2="279" y2="117" stroke="var(--border)" stroke-width="1" opacity="0.55"/><line x1="283" y1="109" x2="245" y2="116" stroke="var(--border)" stroke-width="1" opacity="0.55"/><line x1="315" y1="128" x2="287" y2="127" stroke="var(--border)" stroke-width="1" opacity="0.55"/><line x1="279" y1="117" x2="277" y2="104" stroke="var(--border)" stroke-width="1" opacity="0.55"/><line x1="279" y1="117" x2="266" y2="123" stroke="var(--border)" stroke-width="1" opacity="0.55"/><line x1="279" y1="117" x2="285" y2="128" stroke="var(--border)" stroke-width="1" opacity="0.55"/><line x1="277" y1="104" x2="287" y2="127" stroke="var(--border)" stroke-width="1" opacity="0.55"/><line x1="266" y1="123" x2="314" y2="102" stroke="var(--border)" stroke-width="1" opacity="0.55"/><line x1="245" y1="116" x2="314" y2="102" stroke="var(--border)" stroke-width="1" opacity="0.55"/><line x1="78" y1="44" x2="280" y2="40" stroke="var(--jupyter)" stroke-width="1" opacity="0.30" stroke-dasharray="3 4"/><line x1="78" y1="44" x2="72" y2="108" stroke="var(--jupyter)" stroke-width="1" opacity="0.30" stroke-dasharray="3 4"/><line x1="280" y1="40" x2="286" y2="106" stroke="var(--jupyter)" stroke-width="1" opacity="0.30" stroke-dasharray="3 4"/><line x1="72" y1="108" x2="286" y2="106" stroke="var(--jupyter)" stroke-width="1" opacity="0.30" stroke-dasharray="3 4"/><rect x="113" y="38" width="4" height="4" fill="var(--faint)"/><rect x="79" y="63" width="4" height="4" fill="var(--faint)"/><rect x="101" y="23" width="4" height="4" fill="var(--faint)"/><rect x="93" y="37" width="4" height="4" fill="var(--faint)"/><rect x="117" y="25" width="4" height="4" fill="var(--faint)"/><rect x="54" y="29" width="4" height="4" fill="var(--faint)"/><rect x="81" y="52" width="4" height="4" fill="var(--faint)"/><rect x="65" y="46" width="4" height="4" fill="var(--faint)"/><rect x="103" y="28" width="4" height="4" fill="var(--faint)"/><rect x="275" y="40" width="4" height="4" fill="var(--faint)"/><rect x="275" y="48" width="4" height="4" fill="var(--faint)"/><rect x="276" y="29" width="4" height="4" fill="var(--faint)"/><rect x="297" y="48" width="4" height="4" fill="var(--faint)"/><rect x="258" y="21" width="4" height="4" fill="var(--faint)"/><rect x="268" y="19" width="4" height="4" fill="var(--faint)"/><rect x="281" y="43" width="4" height="4" fill="var(--faint)"/><rect x="238" y="53" width="4" height="4" fill="var(--faint)"/><rect x="289" y="41" width="4" height="4" fill="var(--faint)"/><rect x="104" y="120" width="4" height="4" fill="var(--faint)"/><rect x="79" y="88" width="4" height="4" fill="var(--faint)"/><rect x="58" y="124" width="4" height="4" fill="var(--faint)"/><rect x="72" y="102" width="4" height="4" fill="var(--faint)"/><rect x="86" y="127" width="4" height="4" fill="var(--faint)"/><rect x="81" y="95" width="4" height="4" fill="var(--faint)"/><rect x="35" y="126" width="4" height="4" fill="var(--faint)"/><rect x="32" y="117" width="4" height="4" fill="var(--faint)"/><rect x="70" y="99" width="4" height="4" fill="var(--faint)"/><rect x="281" y="107" width="4" height="4" fill="var(--faint)"/><rect x="313" y="126" width="4" height="4" fill="var(--faint)"/><rect x="277" y="115" width="4" height="4" fill="var(--faint)"/><rect x="275" y="102" width="4" height="4" fill="var(--faint)"/><rect x="285" y="125" width="4" height="4" fill="var(--faint)"/><rect x="264" y="121" width="4" height="4" fill="var(--faint)"/><rect x="243" y="114" width="4" height="4" fill="var(--faint)"/><rect x="312" y="100" width="4" height="4" fill="var(--faint)"/><rect x="283" y="126" width="4" height="4" fill="var(--faint)"/><g class="inf i0"><rect x="113" y="38" width="4" height="4" fill="#DA5B0B"/><rect x="79" y="63" width="4" height="4" fill="#DA5B0B"/><rect x="101" y="23" width="4" height="4" fill="#DA5B0B"/><rect x="93" y="37" width="4" height="4" fill="#DA5B0B"/><rect x="117" y="25" width="4" height="4" fill="#DA5B0B"/><rect x="54" y="29" width="4" height="4" fill="#DA5B0B"/><rect x="81" y="52" width="4" height="4" fill="#DA5B0B"/><rect x="65" y="46" width="4" height="4" fill="#DA5B0B"/><rect x="103" y="28" width="4" height="4" fill="#DA5B0B"/></g><g class="inf i1"><rect x="275" y="40" width="4" height="4" fill="#DA5B0B"/><rect x="275" y="48" width="4" height="4" fill="#DA5B0B"/><rect x="276" y="29" width="4" height="4" fill="#DA5B0B"/><rect x="297" y="48" width="4" height="4" fill="#DA5B0B"/><rect x="258" y="21" width="4" height="4" fill="#DA5B0B"/><rect x="268" y="19" width="4" height="4" fill="#DA5B0B"/><rect x="281" y="43" width="4" height="4" fill="#DA5B0B"/><rect x="238" y="53" width="4" height="4" fill="#DA5B0B"/><rect x="289" y="41" width="4" height="4" fill="#DA5B0B"/></g><g class="inf i2"><rect x="104" y="120" width="4" height="4" fill="#DA5B0B"/><rect x="79" y="88" width="4" height="4" fill="#DA5B0B"/><rect x="58" y="124" width="4" height="4" fill="#DA5B0B"/><rect x="72" y="102" width="4" height="4" fill="#DA5B0B"/><rect x="86" y="127" width="4" height="4" fill="#DA5B0B"/><rect x="81" y="95" width="4" height="4" fill="#DA5B0B"/><rect x="35" y="126" width="4" height="4" fill="#DA5B0B"/><rect x="32" y="117" width="4" height="4" fill="#DA5B0B"/><rect x="70" y="99" width="4" height="4" fill="#DA5B0B"/></g><g class="inf i3"><rect x="281" y="107" width="4" height="4" fill="#DA5B0B"/><rect x="313" y="126" width="4" height="4" fill="#DA5B0B"/><rect x="277" y="115" width="4" height="4" fill="#DA5B0B"/><rect x="275" y="102" width="4" height="4" fill="#DA5B0B"/><rect x="285" y="125" width="4" height="4" fill="#DA5B0B"/><rect x="264" y="121" width="4" height="4" fill="#DA5B0B"/><rect x="243" y="114" width="4" height="4" fill="#DA5B0B"/><rect x="312" y="100" width="4" height="4" fill="#DA5B0B"/><rect x="283" y="126" width="4" height="4" fill="#DA5B0B"/></g><g class="chk"><rect x="186" y="70" width="10" height="10" fill="#3fb950"/><circle cx="191" cy="75" r="16" fill="none" stroke="#3fb950" stroke-width="2" opacity="0.8"/></g></g></g><rect x="20" y="52" width="390" height="150" fill="none"/><rect x="20" y="52" width="390" height="150" fill="none" stroke="var(--border)" stroke-width="1"/><path d="M23 218h9v3h-9zM20 221h3v3h-3zM32 221h3v3h-3zM20 224h3v3h-3zM32 224h3v3h-3zM20 227h15v3h-15zM20 230h3v3h-3zM32 230h3v3h-3zM20 233h3v3h-3zM32 233h3v3h-3zM20 236h3v3h-3zM32 236h3v3h-3zM41 218h15v3h-15zM41 221h3v3h-3zM41 224h3v3h-3zM41 227h12v3h-12zM41 230h3v3h-3zM41 233h3v3h-3zM41 236h3v3h-3zM62 218h3v3h-3zM74 218h3v3h-3zM62 221h3v3h-3zM74 221h3v3h-3zM62 224h3v3h-3zM74 224h3v3h-3zM62 227h3v3h-3zM68 227h3v3h-3zM74 227h3v3h-3zM62 230h3v3h-3zM68 230h3v3h-3zM74 230h3v3h-3zM62 233h6v3h-6zM71 233h6v3h-6zM62 236h3v3h-3zM74 236h3v3h-3zM86 218h9v3h-9zM83 221h3v3h-3zM95 221h3v3h-3zM83 224h3v3h-3zM95 224h3v3h-3zM83 227h15v3h-15zM83 230h3v3h-3zM95 230h3v3h-3zM83 233h3v3h-3zM95 233h3v3h-3zM83 236h3v3h-3zM95 236h3v3h-3zM104 218h3v3h-3zM116 218h3v3h-3zM104 221h3v3h-3zM116 221h3v3h-3zM104 224h3v3h-3zM116 224h3v3h-3zM104 227h15v3h-15zM104 230h3v3h-3zM116 230h3v3h-3zM104 233h3v3h-3zM116 233h3v3h-3zM104 236h3v3h-3zM116 236h3v3h-3z" fill="var(--text)"/><rect x="20" y="246" width="390" height="1" fill="var(--border)"/><text x="20" y="264" font-size="11" fill="var(--muted)" text-anchor="start" font-weight="400" font-family="ui-monospace,SFMono-Regular,SF Mono,Menlo,Consolas,Liberation Mono,monospace">Discrete-event Monte Carlo model of how</text><text x="20" y="279" font-size="11" fill="var(--muted)" text-anchor="start" font-weight="400" font-family="ui-monospace,SFMono-Regular,SF Mono,Menlo,Consolas,Liberation Mono,monospace">misinformation spreads across four social</text><text x="20" y="294" font-size="11" fill="var(--muted)" text-anchor="start" font-weight="400" font-family="ui-monospace,SFMono-Regular,SF Mono,Menlo,Consolas,Liberation Mono,monospace">platforms with distinct topologies.</text><rect x="20" y="308" width="6" height="6" fill="#DA5B0B"/><text x="32" y="315" font-size="10" fill="var(--text)" text-anchor="start" font-weight="400" font-family="ui-monospace,SFMono-Regular,SF Mono,Menlo,Consolas,Liberation Mono,monospace">1000-run statistical picture</text><rect x="20" y="324" width="6" height="6" fill="#DA5B0B"/><text x="32" y="331" font-size="10" fill="var(--text)" text-anchor="start" font-weight="400" font-family="ui-monospace,SFMono-Regular,SF Mono,Menlo,Consolas,Liberation Mono,monospace">rumour mutation and cross-platform hops</text><rect x="20" y="340" width="6" height="6" fill="#DA5B0B"/><text x="32" y="347" font-size="10" fill="var(--text)" text-anchor="start" font-weight="400" font-family="ui-monospace,SFMono-Regular,SF Mono,Menlo,Consolas,Liberation Mono,monospace">fact-checker intervention testing</text><rect x="20" y="338" width="390" height="1" fill="var(--border)"/><text x="20" y="358" font-size="11" fill="var(--blue)" text-anchor="start" font-weight="600" font-family="ui-monospace,SFMono-Regular,SF Mono,Menlo,Consolas,Liberation Mono,monospace">▸ Dxv-404/Afwah</text></svg>