<svg xmlns="http://www.w3.org/2000/svg" viewBox="0 0 900 36" width="900" height="36" role="img" font-family="ui-monospace,monospace"><title>INDEX</title><desc>Section: INDEX</desc><style>:root{--ground:#0d1117;--panel:#161b22;--inset:#010409;--border:#30363d;--borderhi:#484f58;--text:#e6edf3;--muted:#8b949e;--faint:#6e7681;--blue:#58a6ff;--green:#3fb950;--yellow:#d29922;--python:#3572A5;--ts:#3178c6;--js:#f1e05a;--html:#e34c26;--jupyter:#DA5B0B;--php:#4F5D95}@media (prefers-color-scheme:light){:root{--ground:#ffffff;--panel:#f6f8fa;--inset:#eaeef2;--border:#d1d9e0;--borderhi:#afb8c1;--text:#1f2328;--muted:#59636e;--faint:#818b98;--blue:#0969da;--green:#1a7f37;--yellow:#9a6700;--python:#2b5c86;--ts:#2a63a0;--js:#9a8500;--html:#c23b18;--jupyter:#b04a09;--php:#414d7c}}
.wipe{animation:wp .55s cubic-bezier(.2,0,.1,1) both}
@keyframes wp{from{clip-path:inset(0 100% 0 0)}to{clip-path:inset(0 0 0 0)}}
.lbl{animation:fi .5s ease-out .35s both}
@keyframes fi{from{opacity:0}to{opacity:1}}
@media (prefers-reduced-motion:reduce){*{animation:none!important;transform:none!important}}</style><rect width="900" height="36" fill="var(--ground)"/><g class="wipe"><rect x="0" y="17" width="384" height="2" fill="var(--border)"/><rect x="515" y="17" width="385" height="2" fill="var(--border)"/><rect x="374" y="14" width="8" height="8" fill="var(--blue)"/></g><g class="lbl"><path d="M400 11h15v3h-15zM406 14h3v3h-3zM406 17h3v3h-3zM406 20h3v3h-3zM406 23h3v3h-3zM406 26h3v3h-3zM400 29h15v3h-15zM421 11h3v3h-3zM433 11h3v3h-3zM421 14h6v3h-6zM433 14h3v3h-3zM421 17h3v3h-3zM427 17h3v3h-3zM433 17h3v3h-3zM421 20h3v3h-3zM430 20h6v3h-6zM421 23h3v3h-3zM433 23h3v3h-3zM421 26h3v3h-3zM433 26h3v3h-3zM421 29h3v3h-3zM433 29h3v3h-3zM442 11h12v3h-12zM442 14h3v3h-3zM454 14h3v3h-3zM442 17h3v3h-3zM454 17h3v3h-3zM442 20h3v3h-3zM454 20h3v3h-3zM442 23h3v3h-3zM454 23h3v3h-3zM442 26h3v3h-3zM454 26h3v3h-3zM442 29h12v3h-12zM463 11h15v3h-15zM463 14h3v3h-3zM463 17h3v3h-3zM463 20h12v3h-12zM463 23h3v3h-3zM463 26h3v3h-3zM463 29h15v3h-15zM484 11h3v3h-3zM496 11h3v3h-3zM484 14h3v3h-3zM496 14h3v3h-3zM487 17h3v3h-3zM493 17h3v3h-3zM490 20h3v3h-3zM487 23h3v3h-3zM493 23h3v3h-3zM484 26h3v3h-3zM496 26h3v3h-3zM484 29h3v3h-3zM496 29h3v3h-3z" fill="var(--text)"/></g></svg>