<svg xmlns='http://www.w3.org/2000/svg' width='390' height='195' viewBox='0 0 390 195'>
<defs><pattern id='dg' width='20' height='20' patternUnits='userSpaceOnUse'><circle cx='1' cy='1' r='1' fill='#131313'/></pattern></defs>
<rect x='0' y='0' width='390' height='195' fill='#080808' stroke='none' stroke-width='0.8' rx='0'/>
<rect x='0' y='0' width='390' height='195' fill='url(#dg)' stroke='none' stroke-width='0.8' rx='0'/>
<rect x='0' y='0' width='390' height='195' fill='none' stroke='#1E1E1E' stroke-width='0.8' rx='0'/>
<rect x='0' y='0' width='2' height='195' fill='#FF3B3B' stroke='none' stroke-width='0.8' rx='0'/>
<circle cx='20' cy='22' r='3.5' fill='#FF3B3B'/>
<circle cx='31' cy='22' r='3.5' fill='#FF3B3B'/>
<circle cx='42' cy='22' r='3.5' fill='#252525'/>
<circle cx='53' cy='22' r='3.5' fill='#252525'/>
<circle cx='64' cy='22' r='3.5' fill='#252525'/>
<circle cx="22.0" cy="36.0" r="2.0" fill="' + on + '"/>
<circle cx="27.0" cy="36.0" r="2.0" fill="' + on + '"/>
<circle cx="32.0" cy="36.0" r="2.0" fill="' + on + '"/>
<circle cx="37.0" cy="36.0" r="2.0" fill="' + on + '"/>
<circle cx="42.0" cy="36.0" r="2.0" fill="' + on + '"/>
<circle cx="22.0" cy="41.0" r="2.0" fill="' + off + '"/>
<circle cx="27.0" cy="41.0" r="2.0" fill="' + off + '"/>
<circle cx="32.0" cy="41.0" r="2.0" fill="' + on + '"/>
<circle cx="37.0" cy="41.0" r="2.0" fill="' + off + '"/>
<circle cx="42.0" cy="41.0" r="2.0" fill="' + off + '"/>
<circle cx="22.0" cy="46.0" r="2.0" fill="' + off + '"/>
<circle cx="27.0" cy="46.0" r="2.0" fill="' + off + '"/>
<circle cx="32.0" cy="46.0" r="2.0" fill="' + on + '"/>
<circle cx="37.0" cy="46.0" r="2.0" fill="' + off + '"/>
<circle cx="42.0" cy="46.0" r="2.0" fill="' + off + '"/>
<circle cx="22.0" cy="51.0" r="2.0" fill="' + off + '"/>
<circle cx="27.0" cy="51.0" r="2.0" fill="' + off + '"/>
<circle cx="32.0" cy="51.0" r="2.0" fill="' + on + '"/>
<circle cx="37.0" cy="51.0" r="2.0" fill="' + off + '"/>
<circle cx="42.0" cy="51.0" r="2.0" fill="' + off + '"/>
<circle cx="22.0" cy="56.0" r="2.0" fill="' + off + '"/>
<circle cx="27.0" cy="56.0" r="2.0" fill="' + off + '"/>
<circle cx="32.0" cy="56.0" r="2.0" fill="' + on + '"/>
<circle cx="37.0" cy="56.0" r="2.0" fill="' + off + '"/>
<circle cx="42.0" cy="56.0" r="2.0" fill="' + off + '"/>
<circle cx="22.0" cy="61.0" r="2.0" fill="' + off + '"/>
<circle cx="27.0" cy="61.0" r="2.0" fill="' + off + '"/>
<circle cx="32.0" cy="61.0" r="2.0" fill="' + on + '"/>
<circle cx="37.0" cy="61.0" r="2.0" fill="' + off + '"/>
<circle cx="42.0" cy="61.0" r="2.0" fill="' + off + '"/>
<circle cx="22.0" cy="66.0" r="2.0" fill="' + on + '"/>
<circle cx="27.0" cy="66.0" r="2.0" fill="' + on + '"/>
<circle cx="32.0" cy="66.0" r="2.0" fill="' + on + '"/>
<circle cx="37.0" cy="66.0" r="2.0" fill="' + on + '"/>
<circle cx="42.0" cy="66.0" r="2.0" fill="' + on + '"/>
<circle cx="49.0" cy="36.0" r="2.0" fill="' + on + '"/>
<circle cx="54.0" cy="36.0" r="2.0" fill="' + off + '"/>
<circle cx="59.0" cy="36.0" r="2.0" fill="' + off + '"/>
<circle cx="64.0" cy="36.0" r="2.0" fill="' + off + '"/>
<circle cx="69.0" cy="36.0" r="2.0" fill="' + on + '"/>
<circle cx="49.0" cy="41.0" r="2.0" fill="' + on + '"/>
<circle cx="54.0" cy="41.0" r="2.0" fill="' + on + '"/>
<circle cx="59.0" cy="41.0" r="2.0" fill="' + off + '"/>
<circle cx="64.0" cy="41.0" r="2.0" fill="' + off + '"/>
<circle cx="69.0" cy="41.0" r="2.0" fill="' + on + '"/>
<circle cx="49.0" cy="46.0" r="2.0" fill="' + on + '"/>
<circle cx="54.0" cy="46.0" r="2.0" fill="' + off + '"/>
<circle cx="59.0" cy="46.0" r="2.0" fill="' + on + '"/>
<circle cx="64.0" cy="46.0" r="2.0" fill="' + off + '"/>
<circle cx="69.0" cy="46.0" r="2.0" fill="' + on + '"/>
<circle cx="49.0" cy="51.0" r="2.0" fill="' + on + '"/>
<circle cx="54.0" cy="51.0" r="2.0" fill="' + off + '"/>
<circle cx="59.0" cy="51.0" r="2.0" fill="' + off + '"/>
<circle cx="64.0" cy="51.0" r="2.0" fill="' + on + '"/>
<circle cx="69.0" cy="51.0" r="2.0" fill="' + on + '"/>
<circle cx="49.0" cy="56.0" r="2.0" fill="' + on + '"/>
<circle cx="54.0" cy="56.0" r="2.0" fill="' + off + '"/>
<circle cx="59.0" cy="56.0" r="2.0" fill="' + off + '"/>
<circle cx="64.0" cy="56.0" r="2.0" fill="' + off + '"/>
<circle cx="69.0" cy="56.0" r="2.0" fill="' + on + '"/>
<circle cx="49.0" cy="61.0" r="2.0" fill="' + on + '"/>
<circle cx="54.0" cy="61.0" r="2.0" fill="' + off + '"/>
<circle cx="59.0" cy="61.0" r="2.0" fill="' + off + '"/>
<circle cx="64.0" cy="61.0" r="2.0" fill="' + off + '"/>
<circle cx="69.0" cy="61.0" r="2.0" fill="' + on + '"/>
<circle cx="49.0" cy="66.0" r="2.0" fill="' + on + '"/>
<circle cx="54.0" cy="66.0" r="2.0" fill="' + off + '"/>
<circle cx="59.0" cy="66.0" r="2.0" fill="' + off + '"/>
<circle cx="64.0" cy="66.0" r="2.0" fill="' + off + '"/>
<circle cx="69.0" cy="66.0" r="2.0" fill="' + on + '"/>
<circle cx="76.0" cy="36.0" r="2.0" fill="' + on + '"/>
<circle cx="81.0" cy="36.0" r="2.0" fill="' + off + '"/>
<circle cx="86.0" cy="36.0" r="2.0" fill="' + off + '"/>
<circle cx="91.0" cy="36.0" r="2.0" fill="' + off + '"/>
<circle cx="96.0" cy="36.0" r="2.0" fill="' + on + '"/>
<circle cx="76.0" cy="41.0" r="2.0" fill="' + on + '"/>
<circle cx="81.0" cy="41.0" r="2.0" fill="' + off + '"/>
<circle cx="86.0" cy="41.0" r="2.0" fill="' + off + '"/>
<circle cx="91.0" cy="41.0" r="2.0" fill="' + on + '"/>
<circle cx="96.0" cy="41.0" r="2.0" fill="' + off + '"/>
<circle cx="76.0" cy="46.0" r="2.0" fill="' + on + '"/>
<circle cx="81.0" cy="46.0" r="2.0" fill="' + off + '"/>
<circle cx="86.0" cy="46.0" r="2.0" fill="' + on + '"/>
<circle cx="91.0" cy="46.0" r="2.0" fill="' + off + '"/>
<circle cx="96.0" cy="46.0" r="2.0" fill="' + off + '"/>
<circle cx="76.0" cy="51.0" r="2.0" fill="' + on + '"/>
<circle cx="81.0" cy="51.0" r="2.0" fill="' + on + '"/>
<circle cx="86.0" cy="51.0" r="2.0" fill="' + off + '"/>
<circle cx="91.0" cy="51.0" r="2.0" fill="' + off + '"/>
<circle cx="96.0" cy="51.0" r="2.0" fill="' + off + '"/>
<circle cx="76.0" cy="56.0" r="2.0" fill="' + on + '"/>
<circle cx="81.0" cy="56.0" r="2.0" fill="' + off + '"/>
<circle cx="86.0" cy="56.0" r="2.0" fill="' + on + '"/>
<circle cx="91.0" cy="56.0" r="2.0" fill="' + off + '"/>
<circle cx="96.0" cy="56.0" r="2.0" fill="' + off + '"/>
<circle cx="76.0" cy="61.0" r="2.0" fill="' + on + '"/>
<circle cx="81.0" cy="61.0" r="2.0" fill="' + off + '"/>
<circle cx="86.0" cy="61.0" r="2.0" fill="' + off + '"/>
<circle cx="91.0" cy="61.0" r="2.0" fill="' + on + '"/>
<circle cx="96.0" cy="61.0" r="2.0" fill="' + off + '"/>
<circle cx="76.0" cy="66.0" r="2.0" fill="' + on + '"/>
<circle cx="81.0" cy="66.0" r="2.0" fill="' + off + '"/>
<circle cx="86.0" cy="66.0" r="2.0" fill="' + off + '"/>
<circle cx="91.0" cy="66.0" r="2.0" fill="' + off + '"/>
<circle cx="96.0" cy="66.0" r="2.0" fill="' + on + '"/>
<rect x='314' y='14' width='58' height='15' fill='none' stroke='#333' stroke-width='0.7' rx='0'/>
<text x='343' y='25' fill='#555' font-size='8' font-family='Courier New, monospace' text-anchor='middle' >SHIPPED</text>
<line x1='18' y1='78' x2='372' y2='78' stroke='#1E1E1E' stroke-width='0.5'/>
<text x='18' y='94' fill='#4A4A4A' font-size='9.5' font-family='Courier New, monospace' text-anchor='start' >Retro academic toolkit for the</text>
<text x='18' y='110' fill='#4A4A4A' font-size='9.5' font-family='Courier New, monospace' text-anchor='start' >modern student. Gamified productivity</text>
<text x='18' y='126' fill='#4A4A4A' font-size='9.5' font-family='Courier New, monospace' text-anchor='start' >meets pixel-art aesthetics.</text>
<rect x='18' y='173' width='36' height='14' fill='none' stroke='#1E1E1E' stroke-width='0.7' rx='0'/>
<text x='24' y='183' fill='#555' font-size='8' font-family='Courier New, monospace' text-anchor='start' >HTML</text>
<rect x='59' y='173' width='30' height='14' fill='none' stroke='#1E1E1E' stroke-width='0.7' rx='0'/>
<text x='65' y='183' fill='#555' font-size='8' font-family='Courier New, monospace' text-anchor='start' >CSS</text>
<rect x='94' y='173' width='24' height='14' fill='none' stroke='#1E1E1E' stroke-width='0.7' rx='0'/>
<text x='100' y='183' fill='#555' font-size='8' font-family='Courier New, monospace' text-anchor='start' >JS</text>
</svg>