<svg xmlns='http://www.w3.org/2000/svg' width='390' height='188' viewBox='0 0 390 188'>
<rect x='0' y='0' width='390' height='188' fill='#080808' stroke='none''/>
<g opacity="0.3">
<circle cx="0" cy="0" r="0.9" fill="#1E1E1E"/>
<circle cx="0" cy="20" r="0.9" fill="#1E1E1E"/>
<circle cx="0" cy="40" r="0.9" fill="#1E1E1E"/>
<circle cx="0" cy="60" r="0.9" fill="#1E1E1E"/>
<circle cx="0" cy="80" r="0.9" fill="#1E1E1E"/>
<circle cx="0" cy="100" r="0.9" fill="#1E1E1E"/>
<circle cx="0" cy="120" r="0.9" fill="#1E1E1E"/>
<circle cx="0" cy="140" r="0.9" fill="#1E1E1E"/>
<circle cx="0" cy="160" r="0.9" fill="#1E1E1E"/>
<circle cx="0" cy="180" r="0.9" fill="#1E1E1E"/>
<circle cx="20" cy="0" r="0.9" fill="#1E1E1E"/>
<circle cx="20" cy="20" r="0.9" fill="#1E1E1E"/>
<circle cx="20" cy="40" r="0.9" fill="#1E1E1E"/>
<circle cx="20" cy="60" r="0.9" fill="#1E1E1E"/>
<circle cx="20" cy="80" r="0.9" fill="#1E1E1E"/>
<circle cx="20" cy="100" r="0.9" fill="#1E1E1E"/>
<circle cx="20" cy="120" r="0.9" fill="#1E1E1E"/>
<circle cx="20" cy="140" r="0.9" fill="#1E1E1E"/>
<circle cx="20" cy="160" r="0.9" fill="#1E1E1E"/>
<circle cx="20" cy="180" r="0.9" fill="#1E1E1E"/>
<circle cx="40" cy="0" r="0.9" fill="#1E1E1E"/>
<circle cx="40" cy="20" r="0.9" fill="#1E1E1E"/>
<circle cx="40" cy="40" r="0.9" fill="#1E1E1E"/>
<circle cx="40" cy="60" r="0.9" fill="#1E1E1E"/>
<circle cx="40" cy="80" r="0.9" fill="#1E1E1E"/>
<circle cx="40" cy="100" r="0.9" fill="#1E1E1E"/>
<circle cx="40" cy="120" r="0.9" fill="#1E1E1E"/>
<circle cx="40" cy="140" r="0.9" fill="#1E1E1E"/>
<circle cx="40" cy="160" r="0.9" fill="#1E1E1E"/>
<circle cx="40" cy="180" r="0.9" fill="#1E1E1E"/>
<circle cx="60" cy="0" r="0.9" fill="#1E1E1E"/>
<circle cx="60" cy="20" r="0.9" fill="#1E1E1E"/>
<circle cx="60" cy="40" r="0.9" fill="#1E1E1E"/>
<circle cx="60" cy="60" r="0.9" fill="#1E1E1E"/>
<circle cx="60" cy="80" r="0.9" fill="#1E1E1E"/>
<circle cx="60" cy="100" r="0.9" fill="#1E1E1E"/>
<circle cx="60" cy="120" r="0.9" fill="#1E1E1E"/>
<circle cx="60" cy="140" r="0.9" fill="#1E1E1E"/>
<circle cx="60" cy="160" r="0.9" fill="#1E1E1E"/>
<circle cx="60" cy="180" r="0.9" fill="#1E1E1E"/>
<circle cx="80" cy="0" r="0.9" fill="#1E1E1E"/>
<circle cx="80" cy="20" r="0.9" fill="#1E1E1E"/>
<circle cx="80" cy="40" r="0.9" fill="#1E1E1E"/>
<circle cx="80" cy="60" r="0.9" fill="#1E1E1E"/>
<circle cx="80" cy="80" r="0.9" fill="#1E1E1E"/>
<circle cx="80" cy="100" r="0.9" fill="#1E1E1E"/>
<circle cx="80" cy="120" r="0.9" fill="#1E1E1E"/>
<circle cx="80" cy="140" r="0.9" fill="#1E1E1E"/>
<circle cx="80" cy="160" r="0.9" fill="#1E1E1E"/>
<circle cx="80" cy="180" r="0.9" fill="#1E1E1E"/>
<circle cx="100" cy="0" r="0.9" fill="#1E1E1E"/>
<circle cx="100" cy="20" r="0.9" fill="#1E1E1E"/>
<circle cx="100" cy="40" r="0.9" fill="#1E1E1E"/>
<circle cx="100" cy="60" r="0.9" fill="#1E1E1E"/>
<circle cx="100" cy="80" r="0.9" fill="#1E1E1E"/>
<circle cx="100" cy="100" r="0.9" fill="#1E1E1E"/>
<circle cx="100" cy="120" r="0.9" fill="#1E1E1E"/>
<circle cx="100" cy="140" r="0.9" fill="#1E1E1E"/>
<circle cx="100" cy="160" r="0.9" fill="#1E1E1E"/>
<circle cx="100" cy="180" r="0.9" fill="#1E1E1E"/>
<circle cx="120" cy="0" r="0.9" fill="#1E1E1E"/>
<circle cx="120" cy="20" r="0.9" fill="#1E1E1E"/>
<circle cx="120" cy="40" r="0.9" fill="#1E1E1E"/>
<circle cx="120" cy="60" r="0.9" fill="#1E1E1E"/>
<circle cx="120" cy="80" r="0.9" fill="#1E1E1E"/>
<circle cx="120" cy="100" r="0.9" fill="#1E1E1E"/>
<circle cx="120" cy="120" r="0.9" fill="#1E1E1E"/>
<circle cx="120" cy="140" r="0.9" fill="#1E1E1E"/>
<circle cx="120" cy="160" r="0.9" fill="#1E1E1E"/>
<circle cx="120" cy="180" r="0.9" fill="#1E1E1E"/>
<circle cx="140" cy="0" r="0.9" fill="#1E1E1E"/>
<circle cx="140" cy="20" r="0.9" fill="#1E1E1E"/>
<circle cx="140" cy="40" r="0.9" fill="#1E1E1E"/>
<circle cx="140" cy="60" r="0.9" fill="#1E1E1E"/>
<circle cx="140" cy="80" r="0.9" fill="#1E1E1E"/>
<circle cx="140" cy="100" r="0.9" fill="#1E1E1E"/>
<circle cx="140" cy="120" r="0.9" fill="#1E1E1E"/>
<circle cx="140" cy="140" r="0.9" fill="#1E1E1E"/>
<circle cx="140" cy="160" r="0.9" fill="#1E1E1E"/>
<circle cx="140" cy="180" r="0.9" fill="#1E1E1E"/>
<circle cx="160" cy="0" r="0.9" fill="#1E1E1E"/>
<circle cx="160" cy="20" r="0.9" fill="#1E1E1E"/>
<circle cx="160" cy="40" r="0.9" fill="#1E1E1E"/>
<circle cx="160" cy="60" r="0.9" fill="#1E1E1E"/>
<circle cx="160" cy="80" r="0.9" fill="#1E1E1E"/>
<circle cx="160" cy="100" r="0.9" fill="#1E1E1E"/>
<circle cx="160" cy="120" r="0.9" fill="#1E1E1E"/>
<circle cx="160" cy="140" r="0.9" fill="#1E1E1E"/>
<circle cx="160" cy="160" r="0.9" fill="#1E1E1E"/>
<circle cx="160" cy="180" r="0.9" fill="#1E1E1E"/>
<circle cx="180" cy="0" r="0.9" fill="#1E1E1E"/>
<circle cx="180" cy="20" r="0.9" fill="#1E1E1E"/>
<circle cx="180" cy="40" r="0.9" fill="#1E1E1E"/>
<circle cx="180" cy="60" r="0.9" fill="#1E1E1E"/>
<circle cx="180" cy="80" r="0.9" fill="#1E1E1E"/>
<circle cx="180" cy="100" r="0.9" fill="#1E1E1E"/>
<circle cx="180" cy="120" r="0.9" fill="#1E1E1E"/>
<circle cx="180" cy="140" r="0.9" fill="#1E1E1E"/>
<circle cx="180" cy="160" r="0.9" fill="#1E1E1E"/>
<circle cx="180" cy="180" r="0.9" fill="#1E1E1E"/>
<circle cx="200" cy="0" r="0.9" fill="#1E1E1E"/>
<circle cx="200" cy="20" r="0.9" fill="#1E1E1E"/>
<circle cx="200" cy="40" r="0.9" fill="#1E1E1E"/>
<circle cx="200" cy="60" r="0.9" fill="#1E1E1E"/>
<circle cx="200" cy="80" r="0.9" fill="#1E1E1E"/>
<circle cx="200" cy="100" r="0.9" fill="#1E1E1E"/>
<circle cx="200" cy="120" r="0.9" fill="#1E1E1E"/>
<circle cx="200" cy="140" r="0.9" fill="#1E1E1E"/>
<circle cx="200" cy="160" r="0.9" fill="#1E1E1E"/>
<circle cx="200" cy="180" r="0.9" fill="#1E1E1E"/>
<circle cx="220" cy="0" r="0.9" fill="#1E1E1E"/>
<circle cx="220" cy="20" r="0.9" fill="#1E1E1E"/>
<circle cx="220" cy="40" r="0.9" fill="#1E1E1E"/>
<circle cx="220" cy="60" r="0.9" fill="#1E1E1E"/>
<circle cx="220" cy="80" r="0.9" fill="#1E1E1E"/>
<circle cx="220" cy="100" r="0.9" fill="#1E1E1E"/>
<circle cx="220" cy="120" r="0.9" fill="#1E1E1E"/>
<circle cx="220" cy="140" r="0.9" fill="#1E1E1E"/>
<circle cx="220" cy="160" r="0.9" fill="#1E1E1E"/>
<circle cx="220" cy="180" r="0.9" fill="#1E1E1E"/>
<circle cx="240" cy="0" r="0.9" fill="#1E1E1E"/>
<circle cx="240" cy="20" r="0.9" fill="#1E1E1E"/>
<circle cx="240" cy="40" r="0.9" fill="#1E1E1E"/>
<circle cx="240" cy="60" r="0.9" fill="#1E1E1E"/>
<circle cx="240" cy="80" r="0.9" fill="#1E1E1E"/>
<circle cx="240" cy="100" r="0.9" fill="#1E1E1E"/>
<circle cx="240" cy="120" r="0.9" fill="#1E1E1E"/>
<circle cx="240" cy="140" r="0.9" fill="#1E1E1E"/>
<circle cx="240" cy="160" r="0.9" fill="#1E1E1E"/>
<circle cx="240" cy="180" r="0.9" fill="#1E1E1E"/>
<circle cx="260" cy="0" r="0.9" fill="#1E1E1E"/>
<circle cx="260" cy="20" r="0.9" fill="#1E1E1E"/>
<circle cx="260" cy="40" r="0.9" fill="#1E1E1E"/>
<circle cx="260" cy="60" r="0.9" fill="#1E1E1E"/>
<circle cx="260" cy="80" r="0.9" fill="#1E1E1E"/>
<circle cx="260" cy="100" r="0.9" fill="#1E1E1E"/>
<circle cx="260" cy="120" r="0.9" fill="#1E1E1E"/>
<circle cx="260" cy="140" r="0.9" fill="#1E1E1E"/>
<circle cx="260" cy="160" r="0.9" fill="#1E1E1E"/>
<circle cx="260" cy="180" r="0.9" fill="#1E1E1E"/>
<circle cx="280" cy="0" r="0.9" fill="#1E1E1E"/>
<circle cx="280" cy="20" r="0.9" fill="#1E1E1E"/>
<circle cx="280" cy="40" r="0.9" fill="#1E1E1E"/>
<circle cx="280" cy="60" r="0.9" fill="#1E1E1E"/>
<circle cx="280" cy="80" r="0.9" fill="#1E1E1E"/>
<circle cx="280" cy="100" r="0.9" fill="#1E1E1E"/>
<circle cx="280" cy="120" r="0.9" fill="#1E1E1E"/>
<circle cx="280" cy="140" r="0.9" fill="#1E1E1E"/>
<circle cx="280" cy="160" r="0.9" fill="#1E1E1E"/>
<circle cx="280" cy="180" r="0.9" fill="#1E1E1E"/>
<circle cx="300" cy="0" r="0.9" fill="#1E1E1E"/>
<circle cx="300" cy="20" r="0.9" fill="#1E1E1E"/>
<circle cx="300" cy="40" r="0.9" fill="#1E1E1E"/>
<circle cx="300" cy="60" r="0.9" fill="#1E1E1E"/>
<circle cx="300" cy="80" r="0.9" fill="#1E1E1E"/>
<circle cx="300" cy="100" r="0.9" fill="#1E1E1E"/>
<circle cx="300" cy="120" r="0.9" fill="#1E1E1E"/>
<circle cx="300" cy="140" r="0.9" fill="#1E1E1E"/>
<circle cx="300" cy="160" r="0.9" fill="#1E1E1E"/>
<circle cx="300" cy="180" r="0.9" fill="#1E1E1E"/>
<circle cx="320" cy="0" r="0.9" fill="#1E1E1E"/>
<circle cx="320" cy="20" r="0.9" fill="#1E1E1E"/>
<circle cx="320" cy="40" r="0.9" fill="#1E1E1E"/>
<circle cx="320" cy="60" r="0.9" fill="#1E1E1E"/>
<circle cx="320" cy="80" r="0.9" fill="#1E1E1E"/>
<circle cx="320" cy="100" r="0.9" fill="#1E1E1E"/>
<circle cx="320" cy="120" r="0.9" fill="#1E1E1E"/>
<circle cx="320" cy="140" r="0.9" fill="#1E1E1E"/>
<circle cx="320" cy="160" r="0.9" fill="#1E1E1E"/>
<circle cx="320" cy="180" r="0.9" fill="#1E1E1E"/>
<circle cx="340" cy="0" r="0.9" fill="#1E1E1E"/>
<circle cx="340" cy="20" r="0.9" fill="#1E1E1E"/>
<circle cx="340" cy="40" r="0.9" fill="#1E1E1E"/>
<circle cx="340" cy="60" r="0.9" fill="#1E1E1E"/>
<circle cx="340" cy="80" r="0.9" fill="#1E1E1E"/>
<circle cx="340" cy="100" r="0.9" fill="#1E1E1E"/>
<circle cx="340" cy="120" r="0.9" fill="#1E1E1E"/>
<circle cx="340" cy="140" r="0.9" fill="#1E1E1E"/>
<circle cx="340" cy="160" r="0.9" fill="#1E1E1E"/>
<circle cx="340" cy="180" r="0.9" fill="#1E1E1E"/>
<circle cx="360" cy="0" r="0.9" fill="#1E1E1E"/>
<circle cx="360" cy="20" r="0.9" fill="#1E1E1E"/>
<circle cx="360" cy="40" r="0.9" fill="#1E1E1E"/>
<circle cx="360" cy="60" r="0.9" fill="#1E1E1E"/>
<circle cx="360" cy="80" r="0.9" fill="#1E1E1E"/>
<circle cx="360" cy="100" r="0.9" fill="#1E1E1E"/>
<circle cx="360" cy="120" r="0.9" fill="#1E1E1E"/>
<circle cx="360" cy="140" r="0.9" fill="#1E1E1E"/>
<circle cx="360" cy="160" r="0.9" fill="#1E1E1E"/>
<circle cx="360" cy="180" r="0.9" fill="#1E1E1E"/>
<circle cx="380" cy="0" r="0.9" fill="#1E1E1E"/>
<circle cx="380" cy="20" r="0.9" fill="#1E1E1E"/>
<circle cx="380" cy="40" r="0.9" fill="#1E1E1E"/>
<circle cx="380" cy="60" r="0.9" fill="#1E1E1E"/>
<circle cx="380" cy="80" r="0.9" fill="#1E1E1E"/>
<circle cx="380" cy="100" r="0.9" fill="#1E1E1E"/>
<circle cx="380" cy="120" r="0.9" fill="#1E1E1E"/>
<circle cx="380" cy="140" r="0.9" fill="#1E1E1E"/>
<circle cx="380" cy="160" r="0.9" fill="#1E1E1E"/>
<circle cx="380" cy="180" r="0.9" fill="#1E1E1E"/>
</g>
<rect x='0' y='0' width='390' height='188' fill='none' stroke='#1E1E1E' stroke-width='0.8''/>
<rect x='0' y='0' width='2' height='188' fill='#FF3B3B' stroke='none''/>
<circle cx="22" cy="20" r="3.5" fill="#FF3B3B"/>
<circle cx="33" cy="20" r="3.5" fill="#FF3B3B"/>
<circle cx="44" cy="20" r="3.5" fill="#252525"/>
<circle cx="55" cy="20" r="3.5" fill="#252525"/>
<circle cx="66" cy="20" r="3.5" fill="#252525"/>
<circle cx="24.0" cy="34.0" r="2.0" fill="#FF3B3B"/>
<circle cx="29.0" cy="34.0" r="2.0" fill="#FF3B3B"/>
<circle cx="34.0" cy="34.0" r="2.0" fill="#FF3B3B"/>
<circle cx="39.0" cy="34.0" r="2.0" fill="#FF3B3B"/>
<circle cx="44.0" cy="34.0" r="2.0" fill="#FF3B3B"/>
<circle cx="24.0" cy="39.0" r="2.0" fill="#1A1A1A"/>
<circle cx="29.0" cy="39.0" r="2.0" fill="#1A1A1A"/>
<circle cx="34.0" cy="39.0" r="2.0" fill="#FF3B3B"/>
<circle cx="39.0" cy="39.0" r="2.0" fill="#1A1A1A"/>
<circle cx="44.0" cy="39.0" r="2.0" fill="#1A1A1A"/>
<circle cx="24.0" cy="44.0" r="2.0" fill="#1A1A1A"/>
<circle cx="29.0" cy="44.0" r="2.0" fill="#1A1A1A"/>
<circle cx="34.0" cy="44.0" r="2.0" fill="#FF3B3B"/>
<circle cx="39.0" cy="44.0" r="2.0" fill="#1A1A1A"/>
<circle cx="44.0" cy="44.0" r="2.0" fill="#1A1A1A"/>
<circle cx="24.0" cy="49.0" r="2.0" fill="#1A1A1A"/>
<circle cx="29.0" cy="49.0" r="2.0" fill="#1A1A1A"/>
<circle cx="34.0" cy="49.0" r="2.0" fill="#FF3B3B"/>
<circle cx="39.0" cy="49.0" r="2.0" fill="#1A1A1A"/>
<circle cx="44.0" cy="49.0" r="2.0" fill="#1A1A1A"/>
<circle cx="24.0" cy="54.0" r="2.0" fill="#1A1A1A"/>
<circle cx="29.0" cy="54.0" r="2.0" fill="#1A1A1A"/>
<circle cx="34.0" cy="54.0" r="2.0" fill="#FF3B3B"/>
<circle cx="39.0" cy="54.0" r="2.0" fill="#1A1A1A"/>
<circle cx="44.0" cy="54.0" r="2.0" fill="#1A1A1A"/>
<circle cx="24.0" cy="59.0" r="2.0" fill="#1A1A1A"/>
<circle cx="29.0" cy="59.0" r="2.0" fill="#1A1A1A"/>
<circle cx="34.0" cy="59.0" r="2.0" fill="#FF3B3B"/>
<circle cx="39.0" cy="59.0" r="2.0" fill="#1A1A1A"/>
<circle cx="44.0" cy="59.0" r="2.0" fill="#1A1A1A"/>
<circle cx="24.0" cy="64.0" r="2.0" fill="#FF3B3B"/>
<circle cx="29.0" cy="64.0" r="2.0" fill="#FF3B3B"/>
<circle cx="34.0" cy="64.0" r="2.0" fill="#FF3B3B"/>
<circle cx="39.0" cy="64.0" r="2.0" fill="#FF3B3B"/>
<circle cx="44.0" cy="64.0" r="2.0" fill="#FF3B3B"/>
<circle cx="51.0" cy="34.0" r="2.0" fill="#FF3B3B"/>
<circle cx="56.0" cy="34.0" r="2.0" fill="#1A1A1A"/>
<circle cx="61.0" cy="34.0" r="2.0" fill="#1A1A1A"/>
<circle cx="66.0" cy="34.0" r="2.0" fill="#1A1A1A"/>
<circle cx="71.0" cy="34.0" r="2.0" fill="#FF3B3B"/>
<circle cx="51.0" cy="39.0" r="2.0" fill="#FF3B3B"/>
<circle cx="56.0" cy="39.0" r="2.0" fill="#FF3B3B"/>
<circle cx="61.0" cy="39.0" r="2.0" fill="#1A1A1A"/>
<circle cx="66.0" cy="39.0" r="2.0" fill="#1A1A1A"/>
<circle cx="71.0" cy="39.0" r="2.0" fill="#FF3B3B"/>
<circle cx="51.0" cy="44.0" r="2.0" fill="#FF3B3B"/>
<circle cx="56.0" cy="44.0" r="2.0" fill="#1A1A1A"/>
<circle cx="61.0" cy="44.0" r="2.0" fill="#FF3B3B"/>
<circle cx="66.0" cy="44.0" r="2.0" fill="#1A1A1A"/>
<circle cx="71.0" cy="44.0" r="2.0" fill="#FF3B3B"/>
<circle cx="51.0" cy="49.0" r="2.0" fill="#FF3B3B"/>
<circle cx="56.0" cy="49.0" r="2.0" fill="#1A1A1A"/>
<circle cx="61.0" cy="49.0" r="2.0" fill="#1A1A1A"/>
<circle cx="66.0" cy="49.0" r="2.0" fill="#FF3B3B"/>
<circle cx="71.0" cy="49.0" r="2.0" fill="#FF3B3B"/>
<circle cx="51.0" cy="54.0" r="2.0" fill="#FF3B3B"/>
<circle cx="56.0" cy="54.0" r="2.0" fill="#1A1A1A"/>
<circle cx="61.0" cy="54.0" r="2.0" fill="#1A1A1A"/>
<circle cx="66.0" cy="54.0" r="2.0" fill="#1A1A1A"/>
<circle cx="71.0" cy="54.0" r="2.0" fill="#FF3B3B"/>
<circle cx="51.0" cy="59.0" r="2.0" fill="#FF3B3B"/>
<circle cx="56.0" cy="59.0" r="2.0" fill="#1A1A1A"/>
<circle cx="61.0" cy="59.0" r="2.0" fill="#1A1A1A"/>
<circle cx="66.0" cy="59.0" r="2.0" fill="#1A1A1A"/>
<circle cx="71.0" cy="59.0" r="2.0" fill="#FF3B3B"/>
<circle cx="51.0" cy="64.0" r="2.0" fill="#FF3B3B"/>
<circle cx="56.0" cy="64.0" r="2.0" fill="#1A1A1A"/>
<circle cx="61.0" cy="64.0" r="2.0" fill="#1A1A1A"/>
<circle cx="66.0" cy="64.0" r="2.0" fill="#1A1A1A"/>
<circle cx="71.0" cy="64.0" r="2.0" fill="#FF3B3B"/>
<circle cx="78.0" cy="34.0" r="2.0" fill="#FF3B3B"/>
<circle cx="83.0" cy="34.0" r="2.0" fill="#1A1A1A"/>
<circle cx="88.0" cy="34.0" r="2.0" fill="#1A1A1A"/>
<circle cx="93.0" cy="34.0" r="2.0" fill="#1A1A1A"/>
<circle cx="98.0" cy="34.0" r="2.0" fill="#FF3B3B"/>
<circle cx="78.0" cy="39.0" r="2.0" fill="#FF3B3B"/>
<circle cx="83.0" cy="39.0" r="2.0" fill="#1A1A1A"/>
<circle cx="88.0" cy="39.0" r="2.0" fill="#1A1A1A"/>
<circle cx="93.0" cy="39.0" r="2.0" fill="#FF3B3B"/>
<circle cx="98.0" cy="39.0" r="2.0" fill="#1A1A1A"/>
<circle cx="78.0" cy="44.0" r="2.0" fill="#FF3B3B"/>
<circle cx="83.0" cy="44.0" r="2.0" fill="#1A1A1A"/>
<circle cx="88.0" cy="44.0" r="2.0" fill="#FF3B3B"/>
<circle cx="93.0" cy="44.0" r="2.0" fill="#1A1A1A"/>
<circle cx="98.0" cy="44.0" r="2.0" fill="#1A1A1A"/>
<circle cx="78.0" cy="49.0" r="2.0" fill="#FF3B3B"/>
<circle cx="83.0" cy="49.0" r="2.0" fill="#FF3B3B"/>
<circle cx="88.0" cy="49.0" r="2.0" fill="#1A1A1A"/>
<circle cx="93.0" cy="49.0" r="2.0" fill="#1A1A1A"/>
<circle cx="98.0" cy="49.0" r="2.0" fill="#1A1A1A"/>
<circle cx="78.0" cy="54.0" r="2.0" fill="#FF3B3B"/>
<circle cx="83.0" cy="54.0" r="2.0" fill="#1A1A1A"/>
<circle cx="88.0" cy="54.0" r="2.0" fill="#FF3B3B"/>
<circle cx="93.0" cy="54.0" r="2.0" fill="#1A1A1A"/>
<circle cx="98.0" cy="54.0" r="2.0" fill="#1A1A1A"/>
<circle cx="78.0" cy="59.0" r="2.0" fill="#FF3B3B"/>
<circle cx="83.0" cy="59.0" r="2.0" fill="#1A1A1A"/>
<circle cx="88.0" cy="59.0" r="2.0" fill="#1A1A1A"/>
<circle cx="93.0" cy="59.0" r="2.0" fill="#FF3B3B"/>
<circle cx="98.0" cy="59.0" r="2.0" fill="#1A1A1A"/>
<circle cx="78.0" cy="64.0" r="2.0" fill="#FF3B3B"/>
<circle cx="83.0" cy="64.0" r="2.0" fill="#1A1A1A"/>
<circle cx="88.0" cy="64.0" r="2.0" fill="#1A1A1A"/>
<circle cx="93.0" cy="64.0" r="2.0" fill="#1A1A1A"/>
<circle cx="98.0" cy="64.0" r="2.0" fill="#FF3B3B"/>
<rect x='314' y='13' width='58' height='15' fill='none' stroke='#333' stroke-width='0.7''/>
<text x='343' y='24' fill='#555' font-size='8' font-family='Courier New, monospace' text-anchor='middle' >SHIPPED</text>
<line x1='18' y1='76' x2='372' y2='76' stroke='#1E1E1E' stroke-width='0.5'/>
<text x='18' y='91' fill='#4A4A4A' font-size='9.5' font-family='Courier New, monospace' text-anchor='start' >Retro academic toolkit for the</text>
<text x='18' y='107' fill='#4A4A4A' font-size='9.5' font-family='Courier New, monospace' text-anchor='start' >modern student. Gamified productivity</text>
<text x='18' y='123' fill='#4A4A4A' font-size='9.5' font-family='Courier New, monospace' text-anchor='start' >meets pixel-art aesthetics.</text>
<rect x='18' y='166' width='36' height='14' fill='none' stroke='#1E1E1E' stroke-width='0.7''/>
<text x='24' y='176' fill='#555' font-size='8' font-family='Courier New, monospace' text-anchor='start' >HTML</text>
<rect x='59' y='166' width='30' height='14' fill='none' stroke='#1E1E1E' stroke-width='0.7''/>
<text x='65' y='176' fill='#555' font-size='8' font-family='Courier New, monospace' text-anchor='start' >CSS</text>
<rect x='94' y='166' width='24' height='14' fill='none' stroke='#1E1E1E' stroke-width='0.7''/>
<text x='100' y='176' fill='#555' font-size='8' font-family='Courier New, monospace' text-anchor='start' >JS</text>
</svg>